{"title":"Jack the Giant Slayer (2013) CAM XVID -NOGRP","uid":8265808,"size":1266579216,"categoryP":"video","categoryS":"movies","magnet":"?xt=urn:btih:6f9eec9c210c99df9aa56b8a50bc4465122f8d55&amp;dn=Jack+the+Giant+Slayer+%282013%29+CAM+XVID+-NOGRP&amp;tr=udp%3A%2F%2Ftracker.openbittorrent.com%3A80&amp;tr=udp%3A%2F%2Fopen.demonii.com%3A1337&amp;tr=udp%3A%2F%2Ftracker.coppersurfer.tk%3A6969&amp;tr=udp%3A%2F%2Fexodus.desync.com%3A6969","seeders":1,"leechers":1,"uploader":"tykoon123","files":-1,"time":1363497466,"description":" &lt;a href=&quot;http://imgr.us/images/a41q1n127v4x4fsxugs.jpg&quot; rel=&quot;nofollow&quot; target=&quot;_NEW&quot;&gt;http://imgr.us/images/a41q1n127v4x4fsxugs.jpg&lt;/a&gt;\n\nInfo:\nGeneral\nFormat : MPEG-4\nFormat profile : Base Media\nCodec ID : isom\nFile size : 1.18 GiB\nDuration : 1h 43mn\nOverall bit rate mode : Variable\nOverall bit rate : 1 631 Kbps\n\n\nVideo\nID : 2\nFormat : AVC\nFormat/Info : Advanced Video Codec\nFormat profile : &lt;a class=&quot;__cf_email__&quot; href=&quot;/cdn-cgi/l/email-protection&quot; data-cfemail=&quot;c684a7b5a3aaafa8a3868af5e8f7&quot;&gt;[email&amp;#160;protected]&lt;/a&gt;&lt;script cf-hash='f9e31' type=&quot;text/javascript&quot;&gt;\n/* &lt;![CDATA[ */!function(){try{var t=&quot;currentScript&quot;in document?document.currentScript:function(){for(var t=document.getElementsByTagName(&quot;script&quot;),e=t.length;e--;)if(t[e].getAttribute(&quot;cf-hash&quot;))return t[e]}();if(t&amp;&amp;t.previousSibling){var e,r,n,i,c=t.previousSibling,a=c.getAttribute(&quot;data-cfemail&quot;);if(a){for(e=&quot;&quot;,r=parseInt(a.substr(0,2),16),n=2;a.length-n;n+=2)i=parseInt(a.substr(n,2),16)^r,e+=String.fromCharCode(i);e=document.createTextNode(e),c.parentNode.replaceChild(e,c)}}}catch(u){}}();/* ]]&gt; */&lt;/script&gt;\nFormat settings, CABAC : No\nFormat settings, ReFrames : 1 frame\nFormat settings, GOP : M=1, N=24\nMuxing mode : Container profile=&lt;a class=&quot;__cf_email__&quot; href=&quot;/cdn-cgi/l/email-protection&quot; data-cfemail=&quot;3a785b495f5653545f7a09140a&quot;&gt;[email&amp;#160;protected]&lt;/a&gt;&lt;script cf-hash='f9e31' type=&quot;text/javascript&quot;&gt;\n/* &lt;![CDATA[ */!function(){try{var t=&quot;currentScript&quot;in document?document.currentScript:function(){for(var t=document.getElementsByTagName(&quot;script&quot;),e=t.length;e--;)if(t[e].getAttribute(&quot;cf-hash&quot;))return t[e]}();if(t&amp;&amp;t.previousSibling){var e,r,n,i,c=t.previousSibling,a=c.getAttribute(&quot;data-cfemail&quot;);if(a){for(e=&quot;&quot;,r=parseInt(a.substr(0,2),16),n=2;a.length-n;n+=2)i=parseInt(a.substr(n,2),16)^r,e+=String.fromCharCode(i);e=document.createTextNode(e),c.parentNode.replaceChild(e,c)}}}catch(u){}}();/* ]]&gt; */&lt;/script&gt;\nCodec ID : avc1\nCodec ID/Info : Advanced Video Coding\nDuration : 1h 43mn\nBit rate mode : Variable\nBit rate : 1 496 Kbps\nMaximum bit rate : 2 250 Kbps\nWidth : 853 pixels\nHeight : 480 pixels\nDisplay aspect ratio : 16:9\nOriginal display aspect ratio : 16:9\nFrame rate mode : Constant\nFrame rate : 29.970 fps\nColor space : YUV\nChroma subsampling : 4:2:0\nBit depth : 8 bits\nScan type : Progressive\nBits/(Pixel*Frame) : 0.123\nStream size : 1.08 GiB (92%)\n\n\n\n\nAudio\nID : 1\nFormat : AAC\nFormat/Info : Advanced Audio Codec\nFormat profile : LC\nCodec ID : 40\nDuration : 1h 43mn\nBit rate mode : Variable\nBit rate : 128 Kbps\nMaximum bit rate : 174 Kbps\nChannel(s) : 2 channels\nChannel positions : Front: L R\nSampling rate : 48.0 KHz\nCompression mode : Lossy\nStream size : 94.8 MiB (8%)\nLanguage : English\n\n\nIMDb: http://www.imdb.com/title/tt1351685/\n\n\n\n\nScreens: &lt;a href=&quot;\nhttp://imgr.us/images/e8qjh3bxpvb65znl7bz.png&quot; rel=&quot;nofollow&quot; target=&quot;_NEW&quot;&gt;\nhttp://imgr.us/images/e8qjh3bxpvb65znl7bz.png&lt;/a&gt; &lt;a href=&quot;\nhttp://imgr.us/images/c55qudv2yph3t0oi649.png&quot; rel=&quot;nofollow&quot; target=&quot;_NEW&quot;&gt;\nhttp://imgr.us/images/c55qudv2yph3t0oi649.png&lt;/a&gt; &lt;a href=&quot;\nhttp://imgr.us/images/zshu9zjghx1xv0n2l9.png&quot; rel=&quot;nofollow&quot; target=&quot;_NEW&quot;&gt;\nhttp://imgr.us/images/zshu9zjghx1xv0n2l9.png&lt;/a&gt; &lt;a href=&quot;\nhttp://imgr.us/images/k40hh9r2dewbmhzhagz.jpg&quot; rel=&quot;nofollow&quot; target=&quot;_NEW&quot;&gt;\nhttp://imgr.us/images/k40hh9r2dewbmhzhagz.jpg&lt;/a&gt;","torrent":{"xt":"urn:btih:6f9eec9c210c99df9aa56b8a50bc4465122f8d55","amp;dn":"Jack+the+Giant+Slayer+%282013%29+CAM+XVID+-NOGRP","amp;tr":["udp%3A%2F%2Ftracker.openbittorrent.com%3A80","udp%3A%2F%2Fopen.demonii.com%3A1337","udp%3A%2F%2Ftracker.coppersurfer.tk%3A6969","udp%3A%2F%2Fexodus.desync.com%3A6969"],"infoHash":"6f9eec9c210c99df9aa56b8a50bc4465122f8d55","infoHashBuffer":{"type":"Buffer","data":[111,158,236,156,33,12,153,223,154,165,107,138,80,188,68,101,18,47,141,85]},"announce":[],"urlList":[]}}